<svg width="50" height="48" viewBox="0 0 50 48" fill="none" xmlns="http://www.w3.org/2000/svg">
<path d="M27.2941 47.5986C25.9941 46.8886 24.7041 46.1786 23.4041 45.4786C21.8641 44.6486 20.3642 43.7286 18.7742 42.9986C16.4042 41.9186 13.8442 41.8286 11.2742 41.7586C9.94416 41.7186 8.59415 41.5886 7.29415 41.3186C3.71415 40.5586 1.42415 37.4086 1.69415 33.7386C1.89415 31.0286 3.17415 29.0086 5.61415 27.7786C9.14415 26.0086 12.6742 24.2386 16.2242 22.5086C21.0842 20.1386 26.8641 21.8986 29.5641 26.5786C31.5341 29.9986 33.4842 33.4286 35.4142 36.8786C36.8442 39.4286 36.6942 41.9786 35.0842 44.3686C33.4742 46.7586 31.2041 47.9386 28.2641 47.6586C27.9641 47.6286 27.6641 47.5486 27.3541 47.4886C27.3341 47.5286 27.3042 47.5686 27.2842 47.6086L27.2941 47.5986Z" fill="#7F3B1D"/>
<path d="M25.664 9.91854C24.924 12.1785 23.754 14.0685 21.784 15.3785C18.914 17.2885 15.694 16.3185 14.384 13.1185C13.374 10.6485 13.544 8.15855 14.474 5.70855C15.064 4.15855 15.894 2.73853 17.164 1.61853C18.714 0.258526 20.464 -0.411449 22.514 0.268551C24.084 0.788551 25.064 1.94854 25.634 3.44854C26.444 5.60854 26.224 7.78854 25.664 9.90854V9.91854Z" fill="#7F3B1D"/>
<path d="M28.754 10.7985C29.344 9.04854 30.214 7.34853 31.694 6.03853C33.224 4.68853 34.964 4.02852 37.004 4.68852C38.494 5.16852 39.454 6.24852 40.064 7.65852C40.744 9.25852 40.794 10.9285 40.554 12.6185C40.164 15.3185 39.044 17.6385 36.904 19.3785C35.344 20.6485 33.584 21.2485 31.604 20.4385C30.004 19.7885 29.154 18.4585 28.664 16.8785C28.034 14.8785 28.154 12.8785 28.764 10.8085L28.754 10.7985Z" fill="#7F3B1D"/>
<path d="M9.57408 17.2386C9.20408 18.3486 8.71409 19.3886 7.94409 20.2786C5.85409 22.7086 2.67407 22.3986 1.10407 19.5986C0.0440745 17.7086 -0.135926 15.6586 0.104074 13.5486C0.314074 11.7186 0.864076 10.0086 2.07408 8.57864C4.03408 6.27864 7.07408 6.46863 8.70408 9.00863C10.0241 11.0786 10.2541 13.3686 9.88409 15.7386C9.80409 16.2386 9.68408 16.7286 9.57408 17.2286V17.2386Z" fill="#7F3B1D"/>
<path d="M48.5341 26.8587C47.7141 29.0187 46.3141 31.3087 43.7141 32.5887C40.8141 34.0187 37.9441 32.3887 37.6341 29.1787C37.5841 28.7187 37.5741 28.2287 37.6341 27.7687C38.1041 24.5287 39.5741 21.8887 42.3441 20.0687C42.7941 19.7787 43.3041 19.5487 43.8141 19.3787C46.1941 18.6187 48.2941 19.8087 48.8941 22.2287C49.2041 23.4587 49.1241 24.8987 48.5241 26.8587H48.5341Z" fill="#7F3B1D"/>
</svg>
