<svg width="50" height="48" viewBox="0 0 50 48" fill="none" xmlns="http://www.w3.org/2000/svg">
<path d="M27.2841 47.5986C25.9841 46.8886 24.6941 46.1786 23.3941 45.4786C21.8541 44.6486 20.3541 43.7286 18.7641 42.9986C16.3941 41.9186 13.8341 41.8286 11.2641 41.7586C9.93415 41.7186 8.58414 41.5886 7.28414 41.3186C3.70414 40.5586 1.41415 37.4086 1.68415 33.7386C1.88415 31.0286 3.16414 29.0086 5.60414 27.7786C9.13414 26.0086 12.6641 24.2386 16.2141 22.5086C21.0741 20.1386 26.8541 21.8986 29.5541 26.5786C31.5241 29.9986 33.4741 33.4286 35.4041 36.8786C36.8341 39.4286 36.6841 41.9786 35.0741 44.3686C33.4641 46.7586 31.1941 47.9386 28.2541 47.6586C27.9541 47.6286 27.6541 47.5486 27.3441 47.4886C27.3241 47.5286 27.2941 47.5686 27.2741 47.6086L27.2841 47.5986Z" fill="#00643B"/>
<path d="M25.654 9.91854C24.914 12.1785 23.744 14.0685 21.774 15.3785C18.904 17.2885 15.684 16.3185 14.374 13.1185C13.364 10.6485 13.534 8.15855 14.464 5.70855C15.054 4.15855 15.884 2.73853 17.154 1.61853C18.704 0.258526 20.454 -0.411449 22.504 0.268551C24.074 0.788551 25.054 1.94854 25.624 3.44854C26.434 5.60854 26.214 7.78854 25.654 9.90854V9.91854Z" fill="#00643B"/>
<path d="M28.744 10.7987C29.334 9.04866 30.204 7.34865 31.684 6.03865C33.214 4.68865 34.954 4.02864 36.994 4.68864C38.484 5.16864 39.444 6.24865 40.054 7.65865C40.734 9.25865 40.784 10.9286 40.544 12.6186C40.154 15.3186 39.034 17.6386 36.894 19.3786C35.334 20.6486 33.574 21.2486 31.594 20.4386C29.994 19.7886 29.144 18.4586 28.654 16.8786C28.024 14.8786 28.144 12.8786 28.754 10.8086L28.744 10.7987Z" fill="#00643B"/>
<path d="M9.56407 17.2386C9.19407 18.3486 8.70408 19.3886 7.93408 20.2786C5.84408 22.7086 2.66406 22.3986 1.09406 19.5986C0.0340648 17.7086 -0.145935 15.6586 0.0940647 13.5486C0.304065 11.7186 0.854066 10.0086 2.06407 8.57864C4.02407 6.27864 7.06407 6.46863 8.69407 9.00863C10.0141 11.0786 10.2441 13.3686 9.87408 15.7386C9.79408 16.2386 9.67407 16.7286 9.56407 17.2286V17.2386Z" fill="#00643B"/>
<path d="M48.5241 26.8587C47.7041 29.0187 46.3041 31.3087 43.7041 32.5887C40.8041 34.0187 37.9341 32.3887 37.6241 29.1787C37.5741 28.7187 37.5641 28.2287 37.6241 27.7687C38.0941 24.5287 39.5641 21.8887 42.3341 20.0687C42.7841 19.7787 43.2941 19.5487 43.8041 19.3787C46.1841 18.6187 48.2841 19.8087 48.8841 22.2287C49.1941 23.4587 49.1141 24.8987 48.5141 26.8587H48.5241Z" fill="#00643B"/>
</svg>
