<svg width="48" height="48" viewBox="0 0 48 48" fill="none" xmlns="http://www.w3.org/2000/svg">
<path d="M24 48C37.2548 48 48 37.2548 48 24C48 10.7452 37.2548 0 24 0C10.7452 0 0 10.7452 0 24C0 37.2548 10.7452 48 24 48Z" fill="white"/>
<path d="M24.0001 46.1128C36.2127 46.1128 46.113 36.2125 46.113 23.9999C46.113 11.7872 36.2127 1.88696 24.0001 1.88696C11.7875 1.88696 1.88721 11.7872 1.88721 23.9999C1.88721 36.2125 11.7875 46.1128 24.0001 46.1128Z" stroke="#FF8038" stroke-width="0.927419" stroke-miterlimit="10"/>
<path d="M24 44.9677C35.5801 44.9677 44.9677 35.5801 44.9677 24C44.9677 12.4198 35.5801 3.03223 24 3.03223C12.4198 3.03223 3.03223 12.4198 3.03223 24C3.03223 35.5801 12.4198 44.9677 24 44.9677Z" stroke="#FF8038" stroke-width="0.185484" stroke-miterlimit="10"/>
<path d="M17.5162 27.4677C18.9459 27.4677 20.1049 26.3087 20.1049 24.879C20.1049 23.4493 18.9459 22.2903 17.5162 22.2903C16.0865 22.2903 14.9275 23.4493 14.9275 24.879C14.9275 26.3087 16.0865 27.4677 17.5162 27.4677Z" fill="#FF8038"/>
<path d="M29.9676 23.9194C31.3973 23.9194 32.5563 22.7604 32.5563 21.3307C32.5563 19.9009 31.3973 18.7419 29.9676 18.7419C28.5379 18.7419 27.3789 19.9009 27.3789 21.3307C27.3789 22.7604 28.5379 23.9194 29.9676 23.9194Z" fill="#FF8038"/>
<path d="M26.3144 32.1208L24.9273 34.6128C23.8951 36.4676 21.5241 37.145 19.6693 36.1128L17.3225 34.8063" stroke="#FF8038" stroke-width="1.82258" stroke-miterlimit="10" stroke-linecap="round"/>
<path d="M26.3147 32.1208L28.8066 33.5079C30.6615 34.5402 33.0324 33.8708 34.0647 32.0079L35.3712 29.6611" stroke="#FF8038" stroke-width="1.82258" stroke-miterlimit="10" stroke-linecap="round"/>
<path d="M28.2917 26.9558C28.8202 27.2499 29.0179 27.9229 28.7198 28.4584L26.9706 31.6012C26.6764 32.1297 26.0034 32.3273 25.4679 32.0293L22.3251 30.28C21.7966 29.9859 21.599 29.3129 21.897 28.7773C23.1599 26.5083 26.0227 25.6928 28.2917 26.9558Z" stroke="#FF8038" stroke-width="1.82258" stroke-miterlimit="10"/>
<path d="M29.5726 33.8306L30.2985 36.379C30.7017 37.7902 29.871 39.2741 28.4597 39.6773C27.0484 40.0806 25.5646 39.2499 25.1614 37.8386L24.4355 35.2902" stroke="#FF8038" stroke-width="1.82258" stroke-miterlimit="10" stroke-linecap="round"/>
<path d="M12.113 21.6532C10.5889 16.3064 10.6292 11.6129 12.2018 11.1693C13.7743 10.7258 16.2824 14.6935 17.7985 20.0322" stroke="#FF8038" stroke-width="1.82258" stroke-linecap="round" stroke-linejoin="round"/>
<path d="M27.1856 17.3627C25.6614 12.0159 25.7017 7.32236 27.2743 6.87882C28.8468 6.43527 31.3549 10.403 32.871 15.7417" stroke="#FF8038" stroke-width="1.82258" stroke-linecap="round" stroke-linejoin="round"/>
</svg>
