<svg width="60" height="60" viewBox="0 0 60 60" fill="none" xmlns="http://www.w3.org/2000/svg">
<path d="M29.76 59.52C46.196 59.52 59.52 46.196 59.52 29.76C59.52 13.324 46.196 0 29.76 0C13.324 0 0 13.324 0 29.76C0 46.196 13.324 59.52 29.76 59.52Z" fill="white"/>
<path d="M29.7601 57.1798C44.9037 57.1798 57.1801 44.9035 57.1801 29.7598C57.1801 14.6162 44.9037 2.33984 29.7601 2.33984C14.6164 2.33984 2.34009 14.6162 2.34009 29.7598C2.34009 44.9035 14.6164 57.1798 29.7601 57.1798Z" stroke="#7082FF" stroke-width="1.15" stroke-miterlimit="10"/>
<path d="M29.76 55.7598C44.1194 55.7598 55.76 44.1192 55.76 29.7598C55.76 15.4004 44.1194 3.75977 29.76 3.75977C15.4006 3.75977 3.76001 15.4004 3.76001 29.7598C3.76001 44.1192 15.4006 55.7598 29.76 55.7598Z" stroke="#7082FF" stroke-width="0.23" stroke-miterlimit="10"/>
<path d="M21.72 34.0601C23.4928 34.0601 24.93 32.623 24.93 30.8501C24.93 29.0773 23.4928 27.6401 21.72 27.6401C19.9472 27.6401 18.51 29.0773 18.51 30.8501C18.51 32.623 19.9472 34.0601 21.72 34.0601Z" fill="#7082FF"/>
<path d="M37.16 29.6597C38.9328 29.6597 40.37 28.2226 40.37 26.4497C40.37 24.6769 38.9328 23.2397 37.16 23.2397C35.3871 23.2397 33.95 24.6769 33.95 26.4497C33.95 28.2226 35.3871 29.6597 37.16 29.6597Z" fill="#7082FF"/>
<path d="M32.63 39.8301L30.91 42.9201C29.63 45.2201 26.69 46.0601 24.39 44.7801L21.48 43.1601" stroke="#7082FF" stroke-width="2.26" stroke-miterlimit="10" stroke-linecap="round"/>
<path d="M32.6301 39.8298L35.7201 41.5498C38.0201 42.8298 40.9601 41.9998 42.2401 39.6898L43.8601 36.7798" stroke="#7082FF" stroke-width="2.26" stroke-miterlimit="10" stroke-linecap="round"/>
<path d="M35.0819 33.4252C35.7372 33.7899 35.9823 34.6245 35.6127 35.2885L33.4436 39.1855C33.0789 39.8409 32.2443 40.086 31.5803 39.7163L27.6832 37.5473C27.0279 37.1825 26.7828 36.348 27.1525 35.6839C28.7185 32.8704 32.2683 31.8592 35.0819 33.4252Z" stroke="#7082FF" stroke-width="2.26" stroke-miterlimit="10"/>
<path d="M36.67 41.9497L37.57 45.1097C38.07 46.8597 37.04 48.6997 35.29 49.1997C33.54 49.6997 31.7 48.6697 31.2 46.9197L30.3 43.7597" stroke="#7082FF" stroke-width="2.26" stroke-miterlimit="10" stroke-linecap="round"/>
<path d="M15.0201 26.8501C13.1301 20.2201 13.1801 14.4001 15.1301 13.8501C17.0801 13.3001 20.1901 18.2201 22.0701 24.8401" stroke="#7082FF" stroke-width="2.26" stroke-linecap="round" stroke-linejoin="round"/>
<path d="M33.7101 21.5298C31.8201 14.8998 31.8701 9.07976 33.8201 8.52976C35.7701 7.97976 38.8801 12.8998 40.7601 19.5198" stroke="#7082FF" stroke-width="2.26" stroke-linecap="round" stroke-linejoin="round"/>
</svg>
