<svg width="49" height="48" viewBox="0 0 49 48" fill="none" xmlns="http://www.w3.org/2000/svg">
<path d="M24.1445 48C37.3994 48 48.1445 37.2548 48.1445 24C48.1445 10.7452 37.3994 0 24.1445 0C10.8897 0 0.144531 10.7452 0.144531 24C0.144531 37.2548 10.8897 48 24.1445 48Z" fill="white"/>
<path d="M24.1446 46.1128C36.3573 46.1128 46.2575 36.2125 46.2575 23.9999C46.2575 11.7872 36.3573 1.88696 24.1446 1.88696C11.932 1.88696 2.03174 11.7872 2.03174 23.9999C2.03174 36.2125 11.932 46.1128 24.1446 46.1128Z" stroke="#734EF7" stroke-width="0.927419" stroke-miterlimit="10"/>
<path d="M24.1445 44.9677C35.7247 44.9677 45.1122 35.5801 45.1122 24C45.1122 12.4198 35.7247 3.03223 24.1445 3.03223C12.5643 3.03223 3.17676 12.4198 3.17676 24C3.17676 35.5801 12.5643 44.9677 24.1445 44.9677Z" stroke="#734EF7" stroke-width="0.185484" stroke-miterlimit="10"/>
<path d="M17.6607 27.4677C19.0904 27.4677 20.2494 26.3087 20.2494 24.879C20.2494 23.4493 19.0904 22.2903 17.6607 22.2903C16.231 22.2903 15.072 23.4493 15.072 24.879C15.072 26.3087 16.231 27.4677 17.6607 27.4677Z" fill="#734EF7"/>
<path d="M30.1121 23.9194C31.5419 23.9194 32.7009 22.7604 32.7009 21.3307C32.7009 19.9009 31.5419 18.7419 30.1121 18.7419C28.6824 18.7419 27.5234 19.9009 27.5234 21.3307C27.5234 22.7604 28.6824 23.9194 30.1121 23.9194Z" fill="#734EF7"/>
<path d="M26.459 32.1208L25.0719 34.6128C24.0396 36.4676 21.6687 37.145 19.8138 36.1128L17.467 34.8063" stroke="#734EF7" stroke-width="1.82258" stroke-miterlimit="10" stroke-linecap="round"/>
<path d="M26.4592 32.1208L28.9512 33.5079C30.806 34.5402 33.177 33.8708 34.2092 32.0079L35.5157 29.6611" stroke="#734EF7" stroke-width="1.82258" stroke-miterlimit="10" stroke-linecap="round"/>
<path d="M28.4363 26.9558C28.9648 27.2499 29.1624 27.9229 28.8643 28.4584L27.1151 31.6012C26.8209 32.1297 26.1479 32.3273 25.6124 32.0293L22.4696 30.28C21.9411 29.9859 21.7435 29.3129 22.0416 28.7773C23.3045 26.5083 26.1673 25.6928 28.4363 26.9558Z" stroke="#734EF7" stroke-width="1.82258" stroke-miterlimit="10"/>
<path d="M29.7172 33.8306L30.443 36.379C30.8462 37.7902 30.0156 39.2741 28.6043 39.6773C27.193 40.0806 25.7091 39.2499 25.3059 37.8386L24.5801 35.2902" stroke="#734EF7" stroke-width="1.82258" stroke-miterlimit="10" stroke-linecap="round"/>
<path d="M12.2576 21.6532C10.7334 16.3064 10.7737 11.6129 12.3463 11.1693C13.9189 10.7258 16.4269 14.6935 17.9431 20.0322" stroke="#734EF7" stroke-width="1.82258" stroke-linecap="round" stroke-linejoin="round"/>
<path d="M27.3301 17.3627C25.8059 12.0159 25.8462 7.32236 27.4188 6.87882C28.9914 6.43527 31.4994 10.403 33.0156 15.7417" stroke="#734EF7" stroke-width="1.82258" stroke-linecap="round" stroke-linejoin="round"/>
</svg>
