<svg width="16" height="17" viewBox="0 0 16 17" fill="none" xmlns="http://www.w3.org/2000/svg">
<path d="M16 4.19213C16.0006 4.08684 15.9804 3.98247 15.9406 3.885C15.9008 3.78753 15.8421 3.69888 15.768 3.62413L12.376 0.232135C12.3012 0.15799 12.2126 0.09933 12.1151 0.0595184C12.0176 0.0197067 11.9133 -0.000473272 11.808 0.000135442C11.7027 -0.000473272 11.5983 0.0197067 11.5009 0.0595184C11.4034 0.09933 11.3147 0.15799 11.24 0.232135L8.976 2.49613L0.232013 11.2401C0.157868 11.3149 0.0992079 11.4035 0.0593963 11.501C0.0195847 11.5985 -0.000595342 11.7028 1.33714e-05 11.8081V15.2001C1.33714e-05 15.4123 0.0842987 15.6158 0.234328 15.7658C0.384356 15.9158 0.587839 16.0001 0.800012 16.0001H4.19201C4.30395 16.0062 4.41592 15.9887 4.52066 15.9487C4.6254 15.9088 4.72057 15.8472 4.8 15.7681L13.496 7.02413L15.768 4.80013C15.841 4.72259 15.9005 4.63335 15.944 4.53613C15.9517 4.47236 15.9517 4.4079 15.944 4.34413C15.9477 4.30689 15.9477 4.26937 15.944 4.23213L16 4.19213ZM3.86401 14.4001H1.60001V12.1361L9.544 4.19213L11.808 6.45613L3.86401 14.4001ZM12.936 5.32813L10.672 3.06413L11.808 1.93613L14.064 4.19213L12.936 5.32813Z" fill="#A2AAB2"/>
</svg>
