<svg width="16" height="23" viewBox="0 0 16 23" fill="none" xmlns="http://www.w3.org/2000/svg">
<path d="M15.875 7.99994C15.8752 6.49042 15.4414 5.01266 14.6255 3.74264C13.8096 2.47262 12.6459 1.46386 11.2729 0.836493C9.89994 0.209123 8.37558 -0.0104206 6.88136 0.204006C5.38715 0.418433 3.98604 1.05779 2.8449 2.04595C1.70376 3.03411 0.870669 4.32942 0.444837 5.77763C0.0190045 7.22585 0.0183763 8.76594 0.443026 10.2145C0.867676 11.6631 1.69971 12.9591 2.84004 13.9481C3.98038 14.9372 5.38096 15.5777 6.875 15.7934V17.3749H4.25C3.95163 17.3749 3.66548 17.4935 3.4545 17.7044C3.24353 17.9154 3.125 18.2016 3.125 18.4999C3.125 18.7983 3.24353 19.0845 3.4545 19.2954C3.66548 19.5064 3.95163 19.6249 4.25 19.6249H6.875V21.4999C6.875 21.7983 6.99353 22.0845 7.2045 22.2954C7.41548 22.5064 7.70163 22.6249 8 22.6249C8.29837 22.6249 8.58452 22.5064 8.79549 22.2954C9.00647 22.0845 9.125 21.7983 9.125 21.4999V19.6249H11.75C12.0484 19.6249 12.3345 19.5064 12.5455 19.2954C12.7565 19.0845 12.875 18.7983 12.875 18.4999C12.875 18.2016 12.7565 17.9154 12.5455 17.7044C12.3345 17.4935 12.0484 17.3749 11.75 17.3749H9.125V15.7934C10.9981 15.5207 12.7107 14.5833 13.9499 13.1525C15.1892 11.7217 15.8725 9.89282 15.875 7.99994ZM2.375 7.99994C2.375 6.88742 2.7049 5.79989 3.32298 4.87486C3.94107 3.94983 4.81957 3.22886 5.84741 2.80312C6.87524 2.37738 8.00624 2.26598 9.09738 2.48302C10.1885 2.70007 11.1908 3.2358 11.9775 4.02247C12.7641 4.80914 13.2999 5.81142 13.5169 6.90256C13.734 7.9937 13.6226 9.1247 13.1968 10.1525C12.7711 11.1804 12.0501 12.0589 11.1251 12.677C10.2001 13.295 9.11252 13.6249 8 13.6249C6.50869 13.6232 5.07896 13.03 4.02444 11.9755C2.96993 10.921 2.37674 9.49125 2.375 7.99994Z" fill="white"/>
</svg>
