<svg width="24" height="24" viewBox="0 0 24 24" fill="none" xmlns="http://www.w3.org/2000/svg">
<path d="M19.875 9.00006C19.8752 7.49054 19.4414 6.01278 18.6255 4.74276C17.8096 3.47274 16.6459 2.46398 15.2729 1.83662C13.8999 1.20925 12.3756 0.989701 10.8814 1.20413C9.38715 1.41855 7.98604 2.05792 6.8449 3.04607C5.70376 4.03423 4.87067 5.32954 4.44484 6.77776C4.019 8.22597 4.01838 9.76606 4.44303 11.2146C4.86768 12.6632 5.69971 13.9592 6.84004 14.9483C7.98038 15.9373 9.38096 16.5779 10.875 16.7935V18.3751H8.25C7.95163 18.3751 7.66548 18.4936 7.4545 18.7046C7.24353 18.9155 7.125 19.2017 7.125 19.5001C7.125 19.7984 7.24353 20.0846 7.4545 20.2956C7.66548 20.5065 7.95163 20.6251 8.25 20.6251H10.875V22.5001C10.875 22.7984 10.9935 23.0846 11.2045 23.2956C11.4155 23.5065 11.7016 23.6251 12 23.6251C12.2984 23.6251 12.5845 23.5065 12.7955 23.2956C13.0065 23.0846 13.125 22.7984 13.125 22.5001V20.6251H15.75C16.0484 20.6251 16.3345 20.5065 16.5455 20.2956C16.7565 20.0846 16.875 19.7984 16.875 19.5001C16.875 19.2017 16.7565 18.9155 16.5455 18.7046C16.3345 18.4936 16.0484 18.3751 15.75 18.3751H13.125V16.7935C14.9981 16.5208 16.7107 15.5834 17.9499 14.1526C19.1892 12.7218 19.8725 10.8929 19.875 9.00006ZM6.375 9.00006C6.375 7.88754 6.7049 6.80001 7.32298 5.87498C7.94107 4.94995 8.81957 4.22898 9.84741 3.80324C10.8752 3.3775 12.0062 3.2661 13.0974 3.48315C14.1885 3.70019 15.1908 4.23592 15.9775 5.02259C16.7641 5.80926 17.2999 6.81154 17.5169 7.90268C17.734 8.99382 17.6226 10.1248 17.1968 11.1527C16.7711 12.1805 16.0501 13.059 15.1251 13.6771C14.2001 14.2952 13.1125 14.6251 12 14.6251C10.5087 14.6233 9.07896 14.0301 8.02444 12.9756C6.96993 11.9211 6.37674 10.4914 6.375 9.00006Z" fill="black"/>
</svg>
