<svg width="24" height="24" viewBox="0 0 24 24" fill="none" xmlns="http://www.w3.org/2000/svg">
<path fill-rule="evenodd" clip-rule="evenodd" d="M5.63603 14.1214C5.07342 14.684 4.75735 15.447 4.75735 16.2427C4.75735 17.0383 5.07342 17.8014 5.63603 18.364C6.19864 18.9266 6.9617 19.2427 7.75735 19.2427C8.553 19.2427 9.31606 18.9266 9.87867 18.364L12 16.2427C12.1875 16.0551 12.4419 15.9498 12.7071 15.9498C12.9723 15.9498 13.2267 16.0551 13.4142 16.2427C13.6017 16.4302 13.7071 16.6846 13.7071 16.9498C13.7071 17.215 13.6017 17.4694 13.4142 17.6569L11.2929 19.7782C10.3552 20.7159 9.08343 21.2427 7.75735 21.2427C6.43126 21.2427 5.15949 20.7159 4.22181 19.7782C3.28413 18.8405 2.75735 17.5688 2.75735 16.2427C2.75735 14.9166 3.28413 13.6448 4.22181 12.7071L6.34313 10.5858C6.53067 10.3983 6.78502 10.2929 7.05024 10.2929C7.31546 10.2929 7.56981 10.3983 7.75735 10.5858C7.94488 10.7734 8.05024 11.0277 8.05024 11.2929C8.05024 11.5581 7.94488 11.8125 7.75735 12L5.63603 14.1214ZM8.46445 15.5356C8.27692 15.348 8.17156 15.0937 8.17156 14.8285C8.17156 14.5632 8.27692 14.3089 8.46445 14.1214L14.1213 8.4645C14.3088 8.27696 14.5632 8.17161 14.8284 8.17161C15.0936 8.17161 15.348 8.27697 15.5355 8.4645C15.7231 8.65204 15.8284 8.90639 15.8284 9.17161C15.8284 9.43682 15.7231 9.69118 15.5355 9.87871L9.87867 15.5356C9.69113 15.7231 9.43678 15.8285 9.17156 15.8285C8.90634 15.8285 8.65199 15.7231 8.46445 15.5356ZM10.5858 6.34318C10.3982 6.53072 10.2929 6.78507 10.2929 7.05029C10.2929 7.3155 10.3982 7.56986 10.5858 7.75739C10.7733 7.94493 11.0277 8.05029 11.2929 8.05029C11.5581 8.05029 11.8125 7.94493 12 7.75739L14.1213 5.63607C14.6839 5.07347 15.447 4.75739 16.2426 4.75739C17.0383 4.75739 17.8013 5.07347 18.3639 5.63607C18.9266 6.19868 19.2426 6.96175 19.2426 7.75739C19.2426 8.55304 18.9266 9.31611 18.3639 9.87871L16.2426 12C16.0551 12.1876 15.9497 12.4419 15.9497 12.7071C15.9497 12.9724 16.0551 13.2267 16.2426 13.4142C16.4302 13.6018 16.6845 13.7071 16.9497 13.7071C17.215 13.7071 17.4693 13.6018 17.6568 13.4142L19.7782 11.2929C20.7158 10.3552 21.2426 9.08348 21.2426 7.75739C21.2426 6.43131 20.7158 5.15954 19.7782 4.22186C18.8405 3.28418 17.5687 2.7574 16.2426 2.75739C14.9165 2.75739 13.6448 3.28418 12.7071 4.22186L10.5858 6.34318Z" fill="#212529"/>
</svg>
