<svg width="24" height="25" viewBox="0 0 24 25" fill="none" xmlns="http://www.w3.org/2000/svg">
<path d="M20.25 2.71118H15.75C15.4517 2.71118 15.1655 2.83359 14.9545 3.05149C14.7436 3.26939 14.625 3.56492 14.625 3.87307C14.625 4.18122 14.7436 4.47675 14.9545 4.69464C15.1655 4.91254 15.4517 5.03495 15.75 5.03495H17.5313L14.4638 8.20496C12.8691 6.97413 10.8823 6.41273 8.90303 6.63374C6.92378 6.85474 5.09902 7.84175 3.79593 9.39615C2.49284 10.9506 1.80814 12.957 1.87959 15.0117C1.95104 17.0665 2.77335 19.017 4.18105 20.4708C5.58875 21.9247 7.47736 22.774 9.46687 22.8478C11.4564 22.9216 13.3991 22.2144 14.9042 20.8686C16.4092 19.5228 17.3649 17.6382 17.5789 15.5941C17.7929 13.5499 17.2493 11.4979 16.0575 9.85097L19.125 6.68096V8.52061C19.125 8.82876 19.2436 9.12429 19.4545 9.34218C19.6655 9.56008 19.9517 9.68249 20.25 9.68249C20.5484 9.68249 20.8346 9.56008 21.0455 9.34218C21.2565 9.12429 21.375 8.82876 21.375 8.52061V3.87307C21.375 3.56492 21.2565 3.26939 21.0455 3.05149C20.8346 2.83359 20.5484 2.71118 20.25 2.71118ZM13.726 18.8285C12.9392 19.6407 11.9369 20.1938 10.8459 20.4177C9.75478 20.6417 8.62389 20.5265 7.59619 20.0867C6.56849 19.647 5.69012 18.9024 5.07214 17.947C4.45415 16.9917 4.12431 15.8686 4.12431 14.7197C4.12431 13.5709 4.45415 12.4478 5.07214 11.4924C5.69012 10.5371 6.56849 9.79253 7.59619 9.35276C8.62389 8.91299 9.75478 8.79781 10.8459 9.02178C11.9369 9.24574 12.9392 9.7988 13.726 10.611C14.7791 11.7018 15.3704 13.1794 15.3704 14.7197C15.3704 16.2601 14.7791 17.7377 13.726 18.8285Z" fill="black"/>
</svg>
