<svg width="20" height="21" viewBox="0 0 20 21" fill="none" xmlns="http://www.w3.org/2000/svg">
<path d="M18.3755 0H13.8755C13.5772 0 13.291 0.122413 13.08 0.340308C12.8691 0.558204 12.7505 0.853734 12.7505 1.16189C12.7505 1.47004 12.8691 1.76557 13.08 1.98346C13.291 2.20136 13.5772 2.32377 13.8755 2.32377H15.6568L12.5893 5.49378C10.9946 4.26294 9.00777 3.70155 7.02852 3.92255C5.04926 4.14356 3.22451 5.13057 1.92142 6.68497C0.618331 8.23937 -0.0663743 10.2458 0.00507856 12.3005C0.0765314 14.3553 0.89884 16.3058 2.30654 17.7597C3.71424 19.2135 5.60285 20.0628 7.59236 20.1366C9.58186 20.2104 11.5246 19.5032 13.0297 18.1574C14.5347 16.8116 15.4904 14.927 15.7044 12.8829C15.9184 10.8387 15.3748 8.78673 14.183 7.13978L17.2505 3.96977V5.80943C17.2505 6.11758 17.3691 6.41311 17.58 6.631C17.791 6.8489 18.0772 6.97131 18.3755 6.97131C18.6739 6.97131 18.96 6.8489 19.171 6.631C19.382 6.41311 19.5005 6.11758 19.5005 5.80943V1.16189C19.5005 0.853734 19.382 0.558204 19.171 0.340308C18.96 0.122413 18.6739 0 18.3755 0ZM11.8515 16.1173C11.0647 16.9295 10.0624 17.4826 8.97134 17.7065C7.88026 17.9305 6.74938 17.8153 5.72168 17.3755C4.69398 16.9358 3.81561 16.1912 3.19762 15.2359C2.57964 14.2806 2.2498 13.1575 2.2498 12.0086C2.2498 10.8597 2.57964 9.73657 3.19762 8.78127C3.81561 7.82596 4.69398 7.08135 5.72168 6.64158C6.74938 6.20181 7.88026 6.08663 8.97134 6.3106C10.0624 6.53456 11.0647 7.08762 11.8515 7.89985C12.9046 8.99065 13.4959 10.4682 13.4959 12.0086C13.4959 13.5489 12.9046 15.0265 11.8515 16.1173Z" fill="white"/>
</svg>
