<svg width="98" height="16" viewBox="0 0 98 16" fill="none" xmlns="http://www.w3.org/2000/svg">
<path d="M20.6401 5.40967V11.3797C20.6401 13.2597 19.1101 14.7897 17.2301 14.7897C15.3501 14.7897 13.8201 13.2597 13.8201 11.3797V10.8897" stroke="#00643B" stroke-width="2.33" stroke-miterlimit="10" stroke-linecap="round"/>
<path d="M17.2301 8.82C19.1134 8.82 20.6401 7.29329 20.6401 5.41C20.6401 3.52671 19.1134 2 17.2301 2C15.3468 2 13.8201 3.52671 13.8201 5.41C13.8201 7.29329 15.3468 8.82 17.2301 8.82Z" stroke="#00643B" stroke-width="2.33" stroke-miterlimit="10"/>
<path d="M29.14 8.82C31.0233 8.82 32.55 7.29329 32.55 5.41C32.55 3.52671 31.0233 2 29.14 2C27.2567 2 25.73 3.52671 25.73 5.41C25.73 7.29329 27.2567 8.82 29.14 8.82Z" stroke="#00643B" stroke-width="2.33" stroke-miterlimit="10"/>
<path d="M40.5799 8.82C42.4632 8.82 43.9899 7.29329 43.9899 5.41C43.9899 3.52671 42.4632 2 40.5799 2C38.6966 2 37.1699 3.52671 37.1699 5.41C37.1699 7.29329 38.6966 8.82 40.5799 8.82Z" stroke="#00643B" stroke-width="2.33" stroke-miterlimit="10"/>
<path d="M5.41 8.82C7.29329 8.82 8.82001 7.29329 8.82001 5.41C8.82001 3.52671 7.29329 2 5.41 2C3.52671 2 2 3.52671 2 5.41C2 7.29329 3.52671 8.82 5.41 8.82Z" stroke="#00643B" stroke-width="2.33" stroke-miterlimit="10"/>
<path d="M17.23 2H21.52" stroke="#00643B" stroke-width="2.33" stroke-miterlimit="10" stroke-linecap="round"/>
<path d="M73.1301 5.40967V11.3797C73.1301 13.2597 71.6 14.7897 69.72 14.7897C67.84 14.7897 66.3101 13.2597 66.3101 11.3797V10.8897" stroke="#00643B" stroke-width="2.33" stroke-miterlimit="10" stroke-linecap="round"/>
<path d="M69.72 8.82C71.6033 8.82 73.1301 7.29329 73.1301 5.41C73.1301 3.52671 71.6033 2 69.72 2C67.8368 2 66.3101 3.52671 66.3101 5.41C66.3101 7.29329 67.8368 8.82 69.72 8.82Z" stroke="#00643B" stroke-width="2.33" stroke-miterlimit="10"/>
<path d="M81.62 8.82C83.5033 8.82 85.03 7.29329 85.03 5.41C85.03 3.52671 83.5033 2 81.62 2C79.7367 2 78.21 3.52671 78.21 5.41C78.21 7.29329 79.7367 8.82 81.62 8.82Z" stroke="#00643B" stroke-width="2.33" stroke-miterlimit="10"/>
<path d="M93.0599 8.82C94.9432 8.82 96.4699 7.29329 96.4699 5.41C96.4699 3.52671 94.9432 2 93.0599 2C91.1766 2 89.6499 3.52671 89.6499 5.41C89.6499 7.29329 91.1766 8.82 93.0599 8.82Z" stroke="#00643B" stroke-width="2.33" stroke-miterlimit="10"/>
<path d="M57.89 8.82C59.7733 8.82 61.3 7.29329 61.3 5.41C61.3 3.52671 59.7733 2 57.89 2C56.0067 2 54.48 3.52671 54.48 5.41C54.48 7.29329 56.0067 8.82 57.89 8.82Z" stroke="#00643B" stroke-width="2.33" stroke-miterlimit="10"/>
<path d="M69.72 2H74" stroke="#00643B" stroke-width="2.33" stroke-miterlimit="10" stroke-linecap="round"/>
</svg>
