<svg width="208" height="33" viewBox="0 0 208 33" fill="none" xmlns="http://www.w3.org/2000/svg">
<g clip-path="url(#clip0_145_4459)">
<path d="M42.5199 9.82001V22.63C42.5199 26.65 39.2299 29.95 35.1999 29.95C31.1799 29.95 27.8799 26.66 27.8799 22.63V21.58" stroke="#1D1D1B" stroke-width="5" stroke-miterlimit="10" stroke-linecap="round"/>
<path d="M35.1999 17.14C39.2426 17.14 42.5199 13.8627 42.5199 9.82C42.5199 5.77728 39.2426 2.5 35.1999 2.5C31.1572 2.5 27.8799 5.77728 27.8799 9.82C27.8799 13.8627 31.1572 17.14 35.1999 17.14Z" stroke="#1D1D1B" stroke-width="5" stroke-miterlimit="10"/>
<path d="M60.7499 17.14C64.7927 17.14 68.0699 13.8627 68.0699 9.82C68.0699 5.77728 64.7927 2.5 60.7499 2.5C56.7072 2.5 53.4299 5.77728 53.4299 9.82C53.4299 13.8627 56.7072 17.14 60.7499 17.14Z" stroke="#1D1D1B" stroke-width="5" stroke-miterlimit="10"/>
<path d="M85.29 17.14C89.3327 17.14 92.61 13.8627 92.61 9.82C92.61 5.77728 89.3327 2.5 85.29 2.5C81.2472 2.5 77.97 5.77728 77.97 9.82C77.97 13.8627 81.2472 17.14 85.29 17.14Z" stroke="#1D1D1B" stroke-width="5" stroke-miterlimit="10"/>
<path d="M9.82 17.14C13.8627 17.14 17.14 13.8627 17.14 9.82C17.14 5.77728 13.8627 2.5 9.82 2.5C5.77728 2.5 2.5 5.77728 2.5 9.82C2.5 13.8627 5.77728 17.14 9.82 17.14Z" stroke="#1D1D1B" stroke-width="5" stroke-miterlimit="10"/>
<path d="M35.2 2.5H44.3899" stroke="#1D1D1B" stroke-width="5" stroke-miterlimit="10" stroke-linecap="round"/>
<path d="M155.16 9.82001V22.63C155.16 26.65 151.87 29.95 147.84 29.95C143.82 29.95 140.52 26.66 140.52 22.63V21.58" stroke="#1D1D1B" stroke-width="5" stroke-miterlimit="10" stroke-linecap="round"/>
<path d="M147.85 17.14C151.893 17.14 155.17 13.8627 155.17 9.82C155.17 5.77728 151.893 2.5 147.85 2.5C143.807 2.5 140.53 5.77728 140.53 9.82C140.53 13.8627 143.807 17.14 147.85 17.14Z" stroke="#1D1D1B" stroke-width="5" stroke-miterlimit="10"/>
<path d="M173.39 17.14C177.433 17.14 180.71 13.8627 180.71 9.82C180.71 5.77728 177.433 2.5 173.39 2.5C169.347 2.5 166.07 5.77728 166.07 9.82C166.07 13.8627 169.347 17.14 173.39 17.14Z" stroke="#1D1D1B" stroke-width="5" stroke-miterlimit="10"/>
<path d="M197.94 17.14C201.983 17.14 205.26 13.8627 205.26 9.82C205.26 5.77728 201.983 2.5 197.94 2.5C193.897 2.5 190.62 5.77728 190.62 9.82C190.62 13.8627 193.897 17.14 197.94 17.14Z" stroke="#1D1D1B" stroke-width="5" stroke-miterlimit="10"/>
<path d="M122.46 17.14C126.503 17.14 129.78 13.8627 129.78 9.82C129.78 5.77728 126.503 2.5 122.46 2.5C118.417 2.5 115.14 5.77728 115.14 9.82C115.14 13.8627 118.417 17.14 122.46 17.14Z" stroke="#1D1D1B" stroke-width="5" stroke-miterlimit="10"/>
<path d="M147.85 2.5H157.04" stroke="#1D1D1B" stroke-width="5" stroke-miterlimit="10" stroke-linecap="round"/>
</g>
<defs>
<clipPath id="clip0_145_4459">
<rect width="207.76" height="32.45" fill="white"/>
</clipPath>
</defs>
</svg>
