<svg width="36" height="50" viewBox="0 0 36 50" fill="none" xmlns="http://www.w3.org/2000/svg">
<path d="M8.39396 27.0613C10.4717 27.0613 12.1561 25.377 12.1561 23.2992C12.1561 21.2215 10.4717 19.5371 8.39396 19.5371C6.3162 19.5371 4.63184 21.2215 4.63184 23.2992C4.63184 25.377 6.3162 27.0613 8.39396 27.0613Z" fill="#FF8038"/>
<path d="M27.2257 27.0613C29.3035 27.0613 30.9879 25.377 30.9879 23.2992C30.9879 21.2215 29.3035 19.5371 27.2257 19.5371C25.148 19.5371 23.4636 21.2215 23.4636 23.2992C23.4636 25.377 25.148 27.0613 27.2257 27.0613Z" fill="#FF8038"/>
<path d="M17.8121 36.9202L14.8778 39.8545C12.6916 42.0407 9.1099 42.0407 6.92373 39.8545L4.15918 37.09" stroke="#FF8038" stroke-width="3" stroke-miterlimit="10" stroke-linecap="round"/>
<path d="M17.8123 36.9202L20.7466 39.8545C22.9328 42.0407 26.5145 42.0407 28.7006 39.8545L31.4652 37.09" stroke="#FF8038" stroke-width="3" stroke-miterlimit="10" stroke-linecap="round"/>
<path d="M22.6449 30.4921C23.2715 31.1187 23.2715 32.1317 22.6449 32.7583L18.9454 36.4579C18.3188 37.0845 17.3057 37.0845 16.6791 36.4579L12.9796 32.7583C12.353 32.1318 12.353 31.1187 12.9796 30.4921C15.6473 27.8244 19.9772 27.8244 22.6449 30.4921Z" stroke="#FF8038" stroke-width="3" stroke-miterlimit="10"/>
<path d="M21.6963 40.6135V44.4712C21.6963 46.6043 19.9506 48.3553 17.8121 48.3553C15.679 48.3553 13.928 46.6096 13.928 44.4712V40.6188" stroke="#FF8038" stroke-width="3" stroke-miterlimit="10" stroke-linecap="round"/>
<path d="M2.11646 16.6293C2.11646 8.54789 4.04262 2 6.4145 2C8.78639 2 10.7126 8.5532 10.7126 16.6293" stroke="#FF8038" stroke-width="3" stroke-linecap="round" stroke-linejoin="round"/>
<path d="M24.9119 16.6293C24.9119 8.54789 26.838 2 29.2099 2C31.5818 2 33.508 8.5532 33.508 16.6293" stroke="#FF8038" stroke-width="3" stroke-linecap="round" stroke-linejoin="round"/>
</svg>
