<svg width="36" height="47" viewBox="0 0 36 47" fill="none" xmlns="http://www.w3.org/2000/svg">
<path d="M8.45792 23.2274C10.5357 23.2274 12.22 21.543 12.22 19.4652C12.22 17.3875 10.5357 15.7031 8.45792 15.7031C6.38016 15.7031 4.6958 17.3875 4.6958 19.4652C4.6958 21.543 6.38016 23.2274 8.45792 23.2274Z" fill="#734EF7"/>
<path d="M27.2895 23.2274C29.3672 23.2274 31.0516 21.543 31.0516 19.4652C31.0516 17.3875 29.3672 15.7031 27.2895 15.7031C25.2117 15.7031 23.5273 17.3875 23.5273 19.4652C23.5273 21.543 25.2117 23.2274 27.2895 23.2274Z" fill="#734EF7"/>
<path d="M17.871 33.0864L14.9366 36.0208C12.7504 38.2069 9.16873 38.2069 6.98257 36.0208L4.21802 33.2562" stroke="#734EF7" stroke-width="3" stroke-miterlimit="10" stroke-linecap="round"/>
<path d="M17.8711 33.0864L20.8054 36.0208C22.9916 38.2069 26.5733 38.2069 28.7595 36.0208L31.524 33.2562" stroke="#734EF7" stroke-width="3" stroke-miterlimit="10" stroke-linecap="round"/>
<path d="M22.7045 26.6591C23.3311 27.2857 23.3311 28.2987 22.7045 28.9253L19.005 32.6249C18.3784 33.2515 17.3653 33.2515 16.7387 32.6249L13.0392 28.9253C12.4126 28.2987 12.4126 27.2857 13.0392 26.6591C15.7069 23.9914 20.0368 23.9914 22.7045 26.6591Z" stroke="#734EF7" stroke-width="3" stroke-miterlimit="10"/>
<path d="M21.7551 36.7795V40.6372C21.7551 42.7703 20.0094 44.5213 17.871 44.5213C15.7379 44.5213 13.9868 42.7756 13.9868 40.6372V36.7848" stroke="#734EF7" stroke-width="3" stroke-miterlimit="10" stroke-linecap="round"/>
<path d="M23.7397 6.54214L30.5264 2L33.742 9.60383" stroke="#734EF7" stroke-width="3" stroke-linecap="round" stroke-linejoin="round"/>
<path d="M12.0023 6.54214L5.21558 2L2 9.60383" stroke="#734EF7" stroke-width="3" stroke-linecap="round" stroke-linejoin="round"/>
</svg>
