<svg width="36" height="50" viewBox="0 0 36 50" fill="none" xmlns="http://www.w3.org/2000/svg">
<path d="M8.75992 27.0613C10.8377 27.0613 12.522 25.377 12.522 23.2992C12.522 21.2215 10.8377 19.5371 8.75992 19.5371C6.68216 19.5371 4.9978 21.2215 4.9978 23.2992C4.9978 25.377 6.68216 27.0613 8.75992 27.0613Z" fill="#734EF7"/>
<path d="M27.5915 27.0613C29.6692 27.0613 31.3536 25.377 31.3536 23.2992C31.3536 21.2215 29.6692 19.5371 27.5915 19.5371C25.5137 19.5371 23.8293 21.2215 23.8293 23.2992C23.8293 25.377 25.5137 27.0613 27.5915 27.0613Z" fill="#734EF7"/>
<path d="M18.1786 36.9202L15.2442 39.8545C13.0581 42.0407 9.47635 42.0407 7.29018 39.8545L4.52563 37.09" stroke="#734EF7" stroke-width="3" stroke-miterlimit="10" stroke-linecap="round"/>
<path d="M18.1782 36.9202L21.1126 39.8545C23.2987 42.0407 26.8804 42.0407 29.0666 39.8545L31.8312 37.09" stroke="#734EF7" stroke-width="3" stroke-miterlimit="10" stroke-linecap="round"/>
<path d="M23.0104 30.4914C23.637 31.118 23.637 32.131 23.0104 32.7576L19.3109 36.4572C18.6843 37.0838 17.6712 37.0838 17.0446 36.4572L13.3451 32.7576C12.7185 32.131 12.7185 31.118 13.3451 30.4914C16.0128 27.8236 20.3427 27.8236 23.0104 30.4914Z" stroke="#734EF7" stroke-width="3" stroke-miterlimit="10"/>
<path d="M22.0574 40.6135V44.4712C22.0574 46.6043 20.3116 48.3553 18.1732 48.3553C16.0401 48.3553 14.2891 46.6096 14.2891 44.4712V40.6188" stroke="#734EF7" stroke-width="3" stroke-miterlimit="10" stroke-linecap="round"/>
<path d="M10.357 6.12294C10.357 3.8459 8.51232 2 6.23674 2C3.96117 2 2.11646 3.8459 2.11646 6.12294V11.599C2.11646 13.876 3.96117 15.7219 6.23674 15.7219C8.51232 15.7219 10.357 13.876 10.357 11.599V6.12294Z" stroke="#734EF7" stroke-width="3" stroke-miterlimit="10" stroke-linecap="round"/>
<path d="M34.235 6.12294C34.235 3.8459 32.3902 2 30.1147 2C27.8391 2 25.9944 3.8459 25.9944 6.12294V11.599C25.9944 13.876 27.8391 15.7219 30.1147 15.7219C32.3902 15.7219 34.235 13.876 34.235 11.599V6.12294Z" stroke="#734EF7" stroke-width="3" stroke-miterlimit="10" stroke-linecap="round"/>
</svg>
