<svg width="32" height="37" viewBox="0 0 32 37" fill="none" xmlns="http://www.w3.org/2000/svg">
<path d="M4 13.2294C4 6.84205 5.52239 1.66675 7.39708 1.66675C9.27176 1.66675 10.7942 6.84624 10.7942 13.2294" stroke="#FF8038" stroke-width="2.37113" stroke-linecap="round" stroke-linejoin="round"/>
<path d="M22.0168 13.2294C22.0168 6.84205 23.5392 1.66675 25.4139 1.66675C27.2886 1.66675 28.811 6.84624 28.811 13.2294" stroke="#FF8038" stroke-width="2.37113" stroke-linecap="round" stroke-linejoin="round"/>
<circle cx="16" cy="20.3333" r="16" fill="#FF8038"/>
<path d="M10.7512 18.251C11.9444 18.251 12.9116 17.2837 12.9116 16.0906C12.9116 14.8974 11.9444 13.9302 10.7512 13.9302C9.55807 13.9302 8.59082 14.8974 8.59082 16.0906C8.59082 17.2837 9.55807 18.251 10.7512 18.251Z" fill="white"/>
<path d="M21.5652 18.251C22.7584 18.251 23.7256 17.2837 23.7256 16.0906C23.7256 14.8974 22.7584 13.9302 21.5652 13.9302C20.372 13.9302 19.4048 14.8974 19.4048 16.0906C19.4048 17.2837 20.372 18.251 21.5652 18.251Z" fill="white"/>
<path d="M16.1598 23.9124L14.4748 25.5974C13.2194 26.8528 11.1625 26.8528 9.90713 25.5974L8.31958 24.0099" stroke="white" stroke-width="1.72276" stroke-miterlimit="10" stroke-linecap="round"/>
<path d="M16.1599 23.9124L17.845 25.5974C19.1004 26.8528 21.1572 26.8528 22.4126 25.5974L24.0002 24.0099" stroke="white" stroke-width="1.72276" stroke-miterlimit="10" stroke-linecap="round"/>
<path d="M18.9346 20.2202C19.2944 20.5801 19.2944 21.1618 18.9346 21.5216L16.8101 23.6461C16.4503 24.006 15.8685 24.006 15.5087 23.6461L13.3842 21.5216C13.0244 21.1618 13.0244 20.5801 13.3842 20.2202C14.9162 18.6883 17.4026 18.6883 18.9346 20.2202Z" stroke="white" stroke-width="1.72276" stroke-miterlimit="10"/>
<path d="M18.3873 26.033V28.2482C18.3873 29.4732 17.3848 30.4787 16.1568 30.4787C14.9318 30.4787 13.9263 29.4762 13.9263 28.2482V26.036" stroke="white" stroke-width="1.72276" stroke-miterlimit="10" stroke-linecap="round"/>
</svg>
