<svg width="20" height="20" viewBox="0 0 20 20" fill="none" xmlns="http://www.w3.org/2000/svg">
<path d="M17.8425 7.98505C18.8778 9.02038 18.8778 10.6943 17.8425 11.7296L11.7297 17.8424C10.6944 18.8777 9.02048 18.8777 7.98515 17.8424L1.87237 11.7296C0.837041 10.6943 0.837042 9.02038 1.87237 7.98505C6.28027 3.57715 13.4346 3.57715 17.8425 7.98505Z" fill="#E9ECEF"/>
<path d="M10.4785 11.959H9.51172L9.42383 6.92969H10.5664L10.4785 11.959ZM9.30664 13.3848C9.30664 13.2578 9.33757 13.1406 9.39941 13.0332C9.46126 12.9258 9.54427 12.8411 9.64844 12.7793C9.75586 12.7142 9.87305 12.6816 10 12.6816C10.1237 12.6816 10.2376 12.7126 10.3418 12.7744C10.4492 12.8363 10.5339 12.9209 10.5957 13.0283C10.6608 13.1357 10.6934 13.2513 10.6934 13.375C10.6934 13.4987 10.6608 13.6143 10.5957 13.7217C10.5339 13.8258 10.4492 13.9105 10.3418 13.9756C10.2376 14.0374 10.1237 14.0684 10 14.0684C9.8763 14.0684 9.76074 14.0374 9.65332 13.9756C9.54915 13.9137 9.46452 13.8307 9.39941 13.7266C9.33757 13.6224 9.30664 13.5085 9.30664 13.3848Z" fill="#6C757D"/>
</svg>
